<svg width="31" height="13" viewBox="0 0 31 13" fill="none" xmlns="http://www.w3.org/2000/svg">
<path d="M9.19619 9.6H3.99619L3.00419 12H0.348187L5.34019 0.799999H7.90019L12.9082 12H10.1882L9.19619 9.6ZM8.38019 7.632L6.60419 3.344L4.82819 7.632H8.38019ZM13.8942 0.127999H16.3902V12H13.8942V0.127999ZM22.8667 12.128C21.9494 12.128 21.1227 11.9413 20.3867 11.568C19.6614 11.184 19.0907 10.656 18.6747 9.984C18.2694 9.312 18.0667 8.54933 18.0667 7.696C18.0667 6.84267 18.2694 6.08 18.6747 5.408C19.0907 4.736 19.6614 4.21333 20.3867 3.84C21.1227 3.456 21.9494 3.264 22.8667 3.264C23.7734 3.264 24.5627 3.456 25.2347 3.84C25.9174 4.21333 26.4134 4.752 26.7227 5.456L24.7867 6.496C24.3387 5.70667 23.6934 5.312 22.8507 5.312C22.2 5.312 21.6614 5.52533 21.2347 5.952C20.808 6.37867 20.5947 6.96 20.5947 7.696C20.5947 8.432 20.808 9.01333 21.2347 9.44C21.6614 9.86667 22.2 10.08 22.8507 10.08C23.704 10.08 24.3494 9.68533 24.7867 8.896L26.7227 9.952C26.4134 10.6347 25.9174 11.168 25.2347 11.552C24.5627 11.936 23.7734 12.128 22.8667 12.128ZM29.4163 12.128C28.979 12.128 28.611 11.9787 28.3123 11.68C28.0136 11.3813 27.8643 11.008 27.8643 10.56C27.8643 10.1013 28.0136 9.73333 28.3123 9.456C28.611 9.168 28.979 9.024 29.4163 9.024C29.8536 9.024 30.2216 9.168 30.5203 9.456C30.819 9.73333 30.9683 10.1013 30.9683 10.56C30.9683 11.008 30.819 11.3813 30.5203 11.68C30.2216 11.9787 29.8536 12.128 29.4163 12.128Z" fill="black"/>
</svg>
