<svg width="74" height="74" viewBox="0 0 74 74" fill="none" xmlns="http://www.w3.org/2000/svg">
<rect x="1" y="1" width="72" height="72" fill="white" stroke="black" stroke-width="2"/>
<path d="M30.1962 42.6H24.9962L24.0042 45H21.3482L26.3402 33.8H28.9002L33.9082 45H31.1882L30.1962 42.6ZM29.3802 40.632L27.6042 36.344L25.8282 40.632H29.3802ZM34.8942 33.128H37.3902V45H34.8942V33.128ZM43.8667 45.128C42.9494 45.128 42.1227 44.9413 41.3867 44.568C40.6614 44.184 40.0907 43.656 39.6747 42.984C39.2694 42.312 39.0667 41.5493 39.0667 40.696C39.0667 39.8427 39.2694 39.08 39.6747 38.408C40.0907 37.736 40.6614 37.2133 41.3867 36.84C42.1227 36.456 42.9494 36.264 43.8667 36.264C44.7734 36.264 45.5627 36.456 46.2347 36.84C46.9174 37.2133 47.4134 37.752 47.7227 38.456L45.7867 39.496C45.3387 38.7067 44.6934 38.312 43.8507 38.312C43.2 38.312 42.6614 38.5253 42.2347 38.952C41.808 39.3787 41.5947 39.96 41.5947 40.696C41.5947 41.432 41.808 42.0133 42.2347 42.44C42.6614 42.8667 43.2 43.08 43.8507 43.08C44.704 43.08 45.3494 42.6853 45.7867 41.896L47.7227 42.952C47.4134 43.6347 46.9174 44.168 46.2347 44.552C45.5627 44.936 44.7734 45.128 43.8667 45.128ZM50.4163 45.128C49.979 45.128 49.611 44.9787 49.3123 44.68C49.0136 44.3813 48.8643 44.008 48.8643 43.56C48.8643 43.1013 49.0136 42.7333 49.3123 42.456C49.611 42.168 49.979 42.024 50.4163 42.024C50.8536 42.024 51.2216 42.168 51.5203 42.456C51.819 42.7333 51.9683 43.1013 51.9683 43.56C51.9683 44.008 51.819 44.3813 51.5203 44.68C51.2216 44.9787 50.8536 45.128 50.4163 45.128Z" fill="black"/>
</svg>
