<svg width="112" height="112" viewBox="0 0 112 112" fill="none" xmlns="http://www.w3.org/2000/svg">
<rect x="1.51351" y="1.51351" width="108.973" height="108.973" fill="white" stroke="black" stroke-width="3.02703"/>
<path d="M45.7023 64.2595H37.8321L36.3307 67.8919H32.3108L39.8662 50.9405H43.7408L51.3205 67.8919H47.2037L45.7023 64.2595ZM44.4673 61.2809L41.7793 54.7909L39.0913 61.2809H44.4673ZM52.8128 49.9235H56.5906V67.8919H52.8128V49.9235ZM66.3928 68.0856C65.0044 68.0856 63.7533 67.8031 62.6393 67.2381C61.5415 66.6569 60.6778 65.8577 60.0482 64.8406C59.4347 63.8236 59.128 62.6693 59.128 61.3777C59.128 60.0862 59.4347 58.9319 60.0482 57.9148C60.6778 56.8977 61.5415 56.1067 62.6393 55.5416C63.7533 54.9604 65.0044 54.6698 66.3928 54.6698C67.7651 54.6698 68.9597 54.9604 69.9768 55.5416C71.0101 56.1067 71.7608 56.9219 72.2289 57.9875L69.2988 59.5615C68.6207 58.3668 67.644 57.7695 66.3686 57.7695C65.3838 57.7695 64.5685 58.0924 63.9228 58.7382C63.277 59.3839 62.9541 60.2638 62.9541 61.3777C62.9541 62.4917 63.277 63.3715 63.9228 64.0173C64.5685 64.6631 65.3838 64.9859 66.3686 64.9859C67.6601 64.9859 68.6369 64.3886 69.2988 63.1939L72.2289 64.7922C71.7608 65.8254 71.0101 66.6326 69.9768 67.2138C68.9597 67.795 67.7651 68.0856 66.3928 68.0856ZM76.3058 68.0856C75.6439 68.0856 75.0869 67.8596 74.6349 67.4076C74.1828 66.9555 73.9568 66.3905 73.9568 65.7124C73.9568 65.0182 74.1828 64.4613 74.6349 64.0415C75.0869 63.6056 75.6439 63.3877 76.3058 63.3877C76.9677 63.3877 77.5247 63.6056 77.9767 64.0415C78.4287 64.4613 78.6547 65.0182 78.6547 65.7124C78.6547 66.3905 78.4287 66.9555 77.9767 67.4076C77.5247 67.8596 76.9677 68.0856 76.3058 68.0856Z" fill="black"/>
</svg>
